<svg xmlns="http://www.w3.org/2000/svg" width="1024" height="1024" viewBox="0 0 1024 1024">
  <defs>
    <radialGradient id="bg" cx="34%" cy="18%" r="92%">
      <stop offset="0" stop-color="#fffdf7"/>
      <stop offset="0.58" stop-color="#f4f1e8"/>
      <stop offset="1" stop-color="#e8e6dc"/>
    </radialGradient>
    <linearGradient id="sage" x1="0" y1="0" x2="1" y2="1">
      <stop offset="0" stop-color="#b9c8b0"/>
      <stop offset="0.55" stop-color="#a7b89d"/>
      <stop offset="1" stop-color="#879b7f"/>
    </linearGradient>
    <linearGradient id="slate" x1="0" y1="0" x2="1" y2="1">
      <stop offset="0" stop-color="#495360"/>
      <stop offset="0.62" stop-color="#3e4652"/>
      <stop offset="1" stop-color="#303842"/>
    </linearGradient>
    <radialGradient id="coin" cx="34%" cy="26%" r="82%">
      <stop offset="0" stop-color="#fffef9"/>
      <stop offset="0.68" stop-color="#f4f1e8"/>
      <stop offset="1" stop-color="#e4e2d7"/>
    </radialGradient>
    <filter id="shadow" x="-30%" y="-30%" width="160%" height="170%">
      <feDropShadow dx="0" dy="28" stdDeviation="30" flood-color="#3e4652" flood-opacity="0.18"/>
      <feDropShadow dx="0" dy="6" stdDeviation="8" flood-color="#3e4652" flood-opacity="0.10"/>
    </filter>
    <filter id="coinShadow" x="-40%" y="-40%" width="180%" height="180%">
      <feDropShadow dx="0" dy="8" stdDeviation="12" flood-color="#3e4652" flood-opacity="0.20"/>
    </filter>
  </defs>

  <rect width="1024" height="1024" fill="url(#bg)"/>

  <g filter="url(#shadow)">
    <rect x="242" y="210" width="190" height="604" rx="95" fill="url(#sage)"/>
    <rect x="242" y="624" width="548" height="190" rx="95" fill="url(#slate)"/>

    <path d="M285 243c49-29 99-16 112 22v285c-25 42-62 65-112 70-26 3-43-14-43-42V306c0-28 14-50 43-63Z" fill="#f4f1e8" opacity="0.10"/>
    <path d="M428 634c36-25 83-37 140-37h86c54 0 98 22 128 66-26-25-64-37-113-37H513c-35 0-63 10-85 30v-22Z" fill="#f4f1e8" opacity="0.08"/>
  </g>

  <g filter="url(#coinShadow)">
    <circle cx="434" cy="626" r="91" fill="url(#coin)"/>
    <circle cx="434" cy="626" r="91" fill="none" stroke="#a7b89d" stroke-opacity="0.42" stroke-width="8"/>
    <circle cx="407" cy="598" r="22" fill="#ffffff" opacity="0.43"/>
    <text x="434" y="660" text-anchor="middle" font-family="Arial, Helvetica, sans-serif" font-size="104" font-weight="600" fill="#6f8268">$</text>
  </g>
</svg>